<?xml version="1.0" encoding="UTF-8"?>
<svg version="1.1" xmlns="http://www.w3.org/2000/svg" width="800" height="800">
<path d="M0 0 C1.13719482 0.00182281 2.27438965 0.00364563 3.44604492 0.00552368 C21.30783579 0.05358807 38.81135502 0.6468721 56.5 3.3125 C57.63018555 3.47878906 58.76037109 3.64507812 59.92480469 3.81640625 C88.12526138 8.09761137 115.85249457 15.12928502 142.5 25.3125 C143.96663086 25.87227539 143.96663086 25.87227539 145.46289062 26.44335938 C190.5984284 43.93752045 231.12188203 69.51312564 267.5 101.3125 C268.33789062 102.03695312 269.17578125 102.76140625 270.0390625 103.5078125 C275.45001906 108.26728265 280.58134579 113.29337776 285.6875 118.375 C286.68595947 119.3664502 286.68595947 119.3664502 287.70458984 120.37792969 C291.61210569 124.29807864 295.33227038 128.32924759 298.94799805 132.51977539 C300.85612588 134.72386265 302.83346835 136.85957159 304.8125 139 C310.06550967 144.83766167 314.82114321 151.01416451 319.5 157.3125 C320.00047852 157.98313477 320.50095703 158.65376953 321.01660156 159.34472656 C372.86957843 229.08905713 400.70652646 312.44942543 400.75 399.3125 C400.75101212 401.12545563 400.75101212 401.12545563 400.75204468 402.97503662 C400.73609657 420.9516794 400.32176329 438.52700446 397.5 456.3125 C397.22663818 458.06771973 397.22663818 458.06771973 396.94775391 459.85839844 C389.84189632 504.416934 375.93754059 546.13150196 355.5 586.3125 C354.99210938 587.31297363 354.48421875 588.31344727 353.9609375 589.34423828 C343.99387251 608.76868881 331.98358333 627.14257921 318.5 644.3125 C317.63323634 645.44464066 316.76740522 646.57749568 315.90234375 647.7109375 C310.55926065 654.66575749 304.96553931 661.26165276 298.96875 667.66015625 C297.00005394 669.7752585 295.11133948 671.91703352 293.25 674.125 C285.65530867 682.87820356 277.21338926 691.26781458 268.3515625 698.734375 C266.19414048 700.57319039 264.13851859 702.50728873 262.0625 704.4375 C229.09886502 734.12493273 188.68866559 757.2791144 147.5 773.3125 C146.47874023 773.71162598 145.45748047 774.11075195 144.40527344 774.52197266 C55.88422523 808.69960295 -44.77641107 810.00705667 -168.04296875 764.19580078 C-196.52625182 751.50494158 -223.00532223 734.54379858 -247.5 715.3125 C-248.96566406 714.16587891 -248.96566406 714.16587891 -250.4609375 712.99609375 C-256.74372885 707.96445999 -262.64332411 702.56713792 -268.51953125 697.07421875 C-270.75653579 694.98760107 -273.03663925 692.9731504 -275.375 691 C-284.73936411 682.89353555 -293.56721663 673.81738395 -301.5 664.3125 C-302.70462891 662.92417969 -302.70462891 662.92417969 -303.93359375 661.5078125 C-320.51208485 642.34764644 -334.95160016 621.31267 -347.5 599.3125 C-347.94520996 598.5395459 -348.39041992 597.7665918 -348.84912109 596.97021484 C-376.48018149 548.72565454 -392.34649761 495.41849155 -398.5 440.3125 C-398.6045752 439.38308594 -398.70915039 438.45367187 -398.81689453 437.49609375 C-399.94690064 425.48042955 -399.74396596 413.36891547 -399.75 401.3125 C-399.75067474 400.10386292 -399.75134949 398.89522583 -399.75204468 397.64996338 C-399.73609657 379.6733206 -399.32176329 362.09799554 -396.5 344.3125 C-396.31775879 343.14235352 -396.13551758 341.97220703 -395.94775391 340.76660156 C-388.83005758 296.13382913 -374.77680553 254.61508282 -354.5 214.3125 C-354.0786377 213.46333008 -353.65727539 212.61416016 -353.22314453 211.73925781 C-338.64794404 182.4370977 -318.8104945 155.1317194 -296.3515625 131.375 C-294.22657104 129.12204645 -292.1872253 126.80958597 -290.1640625 124.46484375 C-286.36048805 120.09670054 -282.34699163 115.96733754 -278.25 111.875 C-277.50274658 111.12855225 -276.75549316 110.38210449 -275.9855957 109.61303711 C-270.41756931 104.10628363 -264.66687545 99.13996359 -258.5 94.3125 C-256.57992989 92.69152287 -254.66342032 91.06632128 -252.75 89.4375 C-229.14484232 69.77664888 -202.82864319 54.15530383 -175.5 40.3125 C-174.64164551 39.87260742 -173.78329102 39.43271484 -172.89892578 38.97949219 C-137.7982118 21.08825128 -98.98962403 10.17300168 -60.1875 4.0625 C-59.23633301 3.91143799 -58.28516602 3.76037598 -57.30517578 3.60473633 C-38.24264063 0.77740867 -19.24994611 -0.06437578 0 0 Z " fill="#0F0B1D" transform="translate(399.5,-0.3125)"/>
<path d="M0 0 C10.89 0 21.78 0 33 0 C33.00586624 2.25266693 33.01173248 4.50533386 33.01777649 6.82626343 C33.07458227 28.10027507 33.14773241 49.37418639 33.23571491 70.64809227 C33.28055456 81.5840699 33.3199961 92.52001582 33.34643555 103.45605469 C33.36951188 112.99522252 33.40301627 122.534289 33.44870156 132.0733763 C33.47250462 137.11760083 33.49131758 142.16172581 33.49761391 147.2060051 C33.5037238 151.96831894 33.52393263 156.73037847 33.55427551 161.49259758 C33.56296225 163.22658067 33.56679815 164.96059713 33.56500816 166.69460106 C33.55503078 180.83865426 33.59271138 197.04403405 40.8125 209.625 C41.34242554 210.60932007 41.34242554 210.60932007 41.88305664 211.61352539 C44.53050784 216.42930809 47.32957883 220.90984697 51 225 C51.64324219 225.73476563 52.28648437 226.46953125 52.94921875 227.2265625 C63.83918659 238.91812582 77.43238007 244.94169624 93.30493164 245.52099609 C111.83626993 245.77672525 127.05444752 241.10518829 140.71875 228.2421875 C141.84796875 227.13230469 141.84796875 227.13230469 143 226 C143.5671875 225.44570313 144.134375 224.89140625 144.71875 224.3203125 C156.3364375 211.89927427 159.63105719 195.9563341 159.21875 179.4296875 C158.18594097 163.23671741 150.92466336 149.04064044 139.21875 137.875 C131.68632956 131.50957428 123.1993186 127.39725874 114 124 C112.58654297 123.46826172 112.58654297 123.46826172 111.14453125 122.92578125 C91.63773901 117.18278776 72.31188599 121.95696693 54 129 C54 117.45 54 105.9 54 94 C58.95 92.5459375 58.95 92.5459375 64 91.0625 C65.02351563 90.75836182 66.04703125 90.45422363 67.1015625 90.14086914 C76.60609706 87.38863695 85.399578 86.81842685 95.25 86.8125 C96.83361328 86.79413086 96.83361328 86.79413086 98.44921875 86.77539062 C109.42090909 86.75524676 119.55045333 88.42136962 129.875 92.125 C130.73359619 92.43211914 131.59219238 92.73923828 132.47680664 93.05566406 C145.82544302 97.99951108 156.5595687 105.4540222 167 115 C167.61488281 115.56074219 168.22976563 116.12148438 168.86328125 116.69921875 C170 118 170 118 170 120 C170.66 120 171.32 120 172 120 C173.70619502 122.23768231 175.27435682 124.46251213 176.8125 126.8125 C177.26318848 127.49884521 177.71387695 128.18519043 178.17822266 128.89233398 C192.26320942 150.73349424 195.63622195 178.56705154 190.75390625 203.96875 C184.89863517 227.51118708 173.65641558 248.50424955 152.8828125 262.27734375 C134.88936441 273.02952614 116.30588036 278.41965461 95.25 278.3125 C94.11546387 278.30831055 92.98092773 278.30412109 91.81201172 278.29980469 C66.2645838 277.95786275 44.60724238 269.40189433 26.1875 251.5625 C8.67815005 233.4009393 -0.22110043 209.02738112 -0.12025452 183.86915588 C-0.12110894 183.07913286 -0.12196337 182.28910983 -0.12284368 181.47514671 C-0.12448307 178.84351506 -0.11900248 176.21194799 -0.11352539 173.58032227 C-0.11324316 171.68768821 -0.11340195 169.79505404 -0.1139679 167.90242004 C-0.11425447 162.77488929 -0.10838032 157.647382 -0.10139394 152.51985669 C-0.09513714 147.15735827 -0.09455476 141.7948593 -0.09336853 136.43235779 C-0.09026208 126.2823695 -0.08205793 116.132392 -0.07201904 105.98240846 C-0.06083661 94.42503096 -0.05534208 82.86765295 -0.05032361 71.31027138 C-0.03987475 47.54017474 -0.02208683 23.77008843 0 0 Z " fill="#FDFDFD" transform="translate(160,260)"/>
<path d="M0 0 C2.02293385 0.01064957 4.0449654 0.00009232 6.06787109 -0.01269531 C30.57044242 0.03530189 51.53234792 6.71224553 69.47802734 23.82324219 C70.24115234 24.62761719 71.00427734 25.43199219 71.79052734 26.26074219 C72.29712891 26.71191406 72.80373047 27.16308594 73.32568359 27.62792969 C91.58908259 44.35204448 98.16535293 70.44134566 99.79052734 94.26074219 C100.10032434 101.84324887 100.02566995 109.43155424 99.98583984 117.01855469 C99.98209876 119.14517075 99.97925699 121.27178856 99.9772644 123.39840698 C99.96971404 128.93187417 99.95014193 134.4652324 99.92785645 139.99865723 C99.90721024 145.67063931 99.89822299 151.34263941 99.88818359 157.01464844 C99.86688585 168.09673468 99.83177638 179.17871223 99.79052734 190.26074219 C88.90052734 190.26074219 78.01052734 190.26074219 66.79052734 190.26074219 C66.76865356 186.11511719 66.76865356 186.11511719 66.74633789 181.88574219 C66.69573135 172.69755325 66.62909228 163.50952916 66.55481243 154.32150269 C66.51031167 148.75731895 66.47101218 143.19320502 66.4440918 137.62890625 C66.41785467 132.24708588 66.37731201 126.86553716 66.32734108 121.48388672 C66.31080912 119.44290579 66.2992106 117.40187802 66.29291344 115.36083984 C66.20933767 90.73518331 62.74145112 68.15885426 45.11474609 49.51464844 C34.56492159 39.28397829 22.44728309 32.888961 7.53076172 32.89941406 C6.60585938 32.91552734 5.68095703 32.93164062 4.72802734 32.94824219 C3.33487305 32.9434082 3.33487305 32.9434082 1.91357422 32.93847656 C-13.989579 33.06123775 -28.61365552 38.96288186 -40.33447266 49.82324219 C-53.84227345 64.16485784 -59.83984477 81.74285738 -59.52197266 101.29199219 C-58.04404137 120.06171955 -49.95609728 134.75964631 -36.07275391 147.17089844 C-20.02895977 159.89528689 -0.02409071 162.60491314 19.79052734 161.26074219 C27.99058858 159.82859576 35.13008325 156.33732419 42.42724609 152.43261719 C44.79052734 151.26074219 44.79052734 151.26074219 46.79052734 151.26074219 C46.79052734 162.15074219 46.79052734 173.04074219 46.79052734 184.26074219 C18.32680017 195.49642397 -10.46819061 197.15190756 -39.20947266 185.26074219 C-62.08590559 174.64848008 -79.53383262 155.7310275 -88.48242188 132.28808594 C-91.6167325 123.54822179 -93.89310992 114.56707949 -94.20947266 105.26074219 C-94.26103516 104.02066406 -94.31259766 102.78058594 -94.36572266 101.50292969 C-95.16088744 73.5210153 -85.61860857 50.35567837 -67.46728516 29.23339844 C-55.33746462 16.40958319 -39.11019078 7.15879823 -22.20947266 2.26074219 C-21.62182129 2.08414062 -21.03416992 1.90753906 -20.42871094 1.72558594 C-13.66968771 -0.06202912 -6.95801061 -0.04343536 0 0 Z " fill="#7E69F5" transform="translate(463.20947265625,344.7392578125)"/>
<path d="M0 0 C6.44006942 3.79276816 12.20462037 10.00530144 14.4765625 17.1640625 C15.40410868 24.88642374 14.66446291 31.53435696 10.4765625 38.1640625 C5.9693826 43.50151238 0.55096105 47.79747137 -6.5625 48.4375 C-14.42359246 48.66014532 -20.38452167 48.40798239 -26.5234375 43.1640625 C-33.21110087 35.99974062 -35.13063889 29.49875816 -34.95703125 19.74609375 C-34.15538612 13.12349387 -31.32862185 8.46177632 -26.19140625 4.25390625 C-18.28968835 -1.14581373 -9.38589415 -3.10925905 0 0 Z " fill="#7D69F4" transform="translate(625.5234375,491.8359375)"/>
</svg>
